# xmcd CD database file
#
# Track frame offsets:
#	150
#	19625
#	40082
#	59697
#	78865
#	95900
#	118317
#	136517
#	162022
#	183987
#	207117
#	228505
#	248312
#	274335
#	292311
#	319330
#
# Disc length: 4652 seconds
#
# Revision: 0
# Processed by: cddbd v1.5.1PL2 Copyright (c) Steve Scherf et al.
# Submitted via: CDex 1.50
#
DISCID=e1122a10
DTITLE=Simple plan - MTV HARD ROCK LIVE
DYEAR=2005
DGENRE=Rock
TTITLE0=Shut Up
TTITLE1=Jump
TTITLE2=Worst Day Ever
TTITLE3=Addicted
TTITLE4=Me Against The World
TTITLE5=Crazy
TTITLE6=God Must Hate Me
TTITLE7=Thank You
TTITLE8=Welcome To My Life
TTITLE9=I'm Just A Kid
TTITLE10=I'd Do Anything
TTITLE11=Untitled (How Could This Happen To Me?)
TTITLE12=Perfect
TTITLE13=Crazy
TTITLE14=Promise (Live From Japan)
TTITLE15=DATA
EXTD=YEAR: 2005
EXTT0=
EXTT1=
EXTT2=
EXTT3=
EXTT4=
EXTT5=
EXTT6=
EXTT7=
EXTT8=
EXTT9=
EXTT10=
EXTT11=
EXTT12=
EXTT13=
EXTT14=
EXTT15=
PLAYORDER=
